<svg xmlns="http://www.w3.org/2000/svg" fill="none" viewBox="0 0 70 70">
  
  
  
  
  
  
  
  
  
<g transform="matrix(5,0,0,5,0,0)"><path stroke="#0f0f10" stroke-linecap="round" stroke-linejoin="round" stroke-width="1.5" d="M2.58 2.58l.369.369"></path><path stroke="#0f0f10" stroke-linecap="round" stroke-linejoin="round" stroke-width="1.5" d="M11.051 11.051l.368.369"></path><path stroke="#0f0f10" stroke-linecap="round" stroke-linejoin="round" stroke-width="1.5" d="M7 .75v.52"></path><path stroke="#0f0f10" stroke-linecap="round" stroke-linejoin="round" stroke-width="1.5" d="M7 12.73v.52"></path><path stroke="#0f0f10" stroke-linecap="round" stroke-linejoin="round" stroke-width="1.5" d="M13.25 7h-.52"></path><path stroke="#0f0f10" stroke-linecap="round" stroke-linejoin="round" stroke-width="1.5" d="M1.27 7H.75"></path><path stroke="#0f0f10" stroke-linecap="round" stroke-linejoin="round" stroke-width="1.5" d="M11.42 2.58l-.369.369"></path><path stroke="#0f0f10" stroke-linecap="round" stroke-linejoin="round" stroke-width="1.5" d="M2.949 11.051l-.368.369"></path><path fill="#ff9110" stroke="#0f0f10" stroke-linecap="round" stroke-linejoin="round" stroke-width="1.5" d="M7 10.125c-2.604 0-3.125-1.563-3.125-3.125 0-1.563.52-3.125 3.125-3.125 2.604 0 3.125 1.563 3.125 3.125 0 1.563-.52 3.125-3.125 3.125z"></path></g></svg>