<svg xmlns="http://www.w3.org/2000/svg" fill="none" viewBox="0 0 250 250">
  
  
  
  
  
  
  
<g transform="matrix(17.857142857142858,0,0,17.857142857142858,0,0)"><path stroke="#454545" stroke-linecap="round" stroke-linejoin="round" stroke-width="1.5" d="M2.58 2.58l.369.369"></path><path stroke="#454545" stroke-linecap="round" stroke-linejoin="round" stroke-width="1.5" d="M7 .75v.52"></path><path stroke="#454545" stroke-linecap="round" stroke-linejoin="round" stroke-width="1.5" d="M13.25 7h-.52"></path><path stroke="#454545" stroke-linecap="round" stroke-linejoin="round" stroke-width="1.5" d="M1.27 7H.75"></path><path stroke="#454545" stroke-linecap="round" stroke-linejoin="round" stroke-width="1.5" d="M11.42 2.58l-.369.369"></path><path fill="#f5ea65" stroke="#454545" stroke-linecap="round" stroke-linejoin="round" stroke-width="1.5" d="M10.347 7.23a3.347 3.347 0 10-6.15 1.805c.582.894.927 1.222.927 2.286a.372.372 0 00.372.372h3.008a.372.372 0 00.372-.372c0-1.09.386-1.413.965-2.339a3.333 3.333 0 00.506-1.752z"></path><path fill="#454545" d="M5.664 11.693h2.672v.97a1.336 1.336 0 11-2.673 0v-.97z"></path></g></svg>